<svg version="1.1" id="Layer_1" xmlns="http://www.w3.org/2000/svg" xmlns:xlink="http://www.w3.org/1999/xlink" x="0px" y="0px"
	 width="100%" viewBox="0 0 2480 1578" enable-background="new 0 0 2480 1578" xml:space="preserve">
<path fill="#FFFFFF" opacity="1.000000" stroke="none" 
	d="
M1337.000000,1579.000000 
	C891.333313,1579.000000 446.166656,1579.000000 1.000000,1579.000000 
	C1.000000,1053.000000 1.000000,527.000000 1.000000,1.000000 
	C827.666687,1.000000 1654.333374,1.000000 2481.000000,1.000000 
	C2481.000000,527.000000 2481.000000,1053.000000 2481.000000,1579.000000 
	C2099.833252,1579.000000 1718.666626,1579.000000 1337.000000,1579.000000 
M1541.117676,588.017639 
	C1417.556152,588.011719 1293.994629,588.005493 1170.433105,588.006592 
	C1169.270874,588.006653 1168.108765,588.104553 1166.026123,588.011047 
	C1070.205566,588.007385 974.385010,588.003174 878.564453,588.006348 
	C877.401611,588.006409 876.238708,588.101807 874.137695,588.017212 
	C784.569275,588.011475 695.000793,588.005127 605.432373,588.006531 
	C604.270447,588.006531 603.108521,588.104492 601.026062,588.011047 
	C570.864868,588.007385 540.703674,587.982971 510.542511,588.006653 
	C486.050629,588.025879 461.558838,588.102905 436.129913,588.017395 
	C350.484589,588.017395 264.839294,588.017395 179.157043,588.017395 
	C179.157043,591.429565 179.157043,594.240784 179.011078,597.972656 
	C179.007385,753.134827 179.003357,908.297058 179.006516,1063.459229 
	C179.006531,1064.622070 179.104660,1065.784790 179.017807,1067.861938 
	C179.017807,1070.469116 179.017807,1073.076416 179.017807,1076.000000 
	C181.311127,1076.000000 183.110245,1076.000000 184.909348,1076.000000 
	C257.463654,1076.000000 330.017944,1076.001099 402.572235,1075.993408 
	C404.399261,1075.993164 406.226288,1075.895508 408.973785,1075.989014 
	C460.803009,1075.992676 512.632263,1076.006470 564.461487,1075.992798 
	C576.956665,1075.989502 589.451843,1075.895386 602.882019,1075.982178 
	C702.114563,1075.988037 801.347107,1075.994629 900.579651,1075.993530 
	C901.741760,1075.993530 902.903870,1075.896973 904.985168,1075.989136 
	C991.143066,1075.992676 1077.301025,1075.997070 1163.458862,1075.993652 
	C1164.621582,1075.993652 1165.784302,1075.895508 1167.881836,1075.982178 
	C1242.777466,1075.988159 1317.673096,1075.994751 1392.568726,1075.993530 
	C1393.730347,1075.993530 1394.891846,1075.895508 1396.973877,1075.988892 
	C1448.569946,1075.988892 1500.166016,1075.988892 1552.000000,1075.988892 
	C1552.000000,1074.139526 1552.000000,1072.830811 1552.000000,1071.522217 
	C1552.000000,950.695312 1552.000610,829.868408 1551.993530,709.041504 
	C1551.993530,707.712097 1551.895508,706.382629 1551.982300,704.119080 
	C1551.603271,696.391052 1551.224365,688.662964 1551.260864,680.185486 
	C1551.507202,678.779724 1551.966431,677.374268 1551.968506,675.968140 
	C1552.010498,647.656738 1552.002197,619.345215 1551.990234,591.033752 
	C1551.989868,590.086365 1551.846558,589.138916 1551.766968,588.156921 
	C1548.327271,588.156921 1545.189819,588.156921 1541.117676,588.017639 
M2303.991211,509.987915 
	C2303.991211,474.398376 2303.991211,438.808807 2303.991211,403.000000 
	C2301.952393,403.000000 2300.474854,403.000000 2298.997314,403.000000 
	C2126.864502,403.000000 1954.731689,402.999695 1782.598877,403.004974 
	C1781.101440,403.005005 1779.604004,403.080414 1777.172852,403.024536 
	C1773.415405,403.057495 1769.657837,403.090454 1764.981079,403.008698 
	C1705.079956,403.008698 1645.178833,403.008698 1585.000000,403.008698 
	C1585.000000,404.814514 1585.000000,406.117279 1585.000000,407.420044 
	C1585.000000,601.469299 1584.997925,795.518494 1585.038208,989.567749 
	C1585.038574,991.090088 1585.613892,992.612305 1585.984253,995.024902 
	C1584.989502,1007.656006 1583.867188,1020.278748 1583.037964,1032.920654 
	C1582.296875,1044.220337 1582.069336,1055.591553 1578.245483,1066.413086 
	C1573.953003,1078.560913 1573.240234,1090.526489 1579.092529,1102.413818 
	C1579.642456,1103.530762 1580.040649,1104.991943 1579.826294,1106.168945 
	C1578.863281,1111.460815 1577.372437,1116.671875 1576.694946,1121.991455 
	C1576.476929,1123.702515 1577.811523,1126.913086 1579.053711,1127.266479 
	C1582.910156,1128.363647 1587.063354,1128.418091 1592.020386,1128.991333 
	C1829.264648,1128.991333 2066.509033,1128.991333 2304.000000,1128.991333 
	C2304.000000,1126.981079 2304.000000,1125.506714 2304.000000,1124.032349 
	C2304.000000,933.883057 2304.000244,743.733704 2303.994873,553.584412 
	C2303.994629,552.087036 2303.915771,550.589722 2303.974609,548.148315 
	C2303.940918,535.734863 2303.907227,523.321411 2303.991211,509.987915 
z"/>
<path fill="#6D9886" opacity="1.000000" stroke="none" 
	d="
M1765.900391,403.123444 
	C1769.657837,403.090454 1773.415405,403.057495 1777.767578,403.383148 
	C1783.843506,406.268494 1787.756714,410.163788 1789.586304,416.073975 
	C1793.300659,428.072845 1793.620483,440.240967 1789.364624,451.945160 
	C1784.002930,466.690765 1780.683716,481.548553 1781.975830,497.300018 
	C1782.770752,506.991638 1783.488159,516.695068 1783.950562,526.407043 
	C1784.470581,537.329651 1784.505737,548.275757 1785.049683,559.196777 
	C1785.491699,568.076233 1785.730103,577.041443 1787.192627,585.778870 
	C1790.372314,604.775269 1795.414062,623.315979 1801.916748,641.500427 
	C1811.231201,667.546936 1821.132935,693.298340 1835.556030,717.036133 
	C1846.277832,734.681946 1858.640991,750.925537 1876.555054,762.011597 
	C1890.466553,770.620667 1905.447144,774.151855 1921.777710,771.133240 
	C1938.709106,768.003418 1953.354492,759.717285 1967.646851,750.780518 
	C1987.833984,738.158020 2006.857056,723.925842 2024.541870,707.957764 
	C2042.441650,691.795471 2060.700439,675.999939 2078.028320,659.243774 
	C2097.748047,640.174744 2116.763672,620.366394 2135.766357,600.573120 
	C2142.688721,593.362732 2148.783691,585.344421 2155.095215,577.563965 
	C2163.260010,567.498657 2170.804932,556.892212 2179.436035,547.252136 
	C2195.240967,529.599548 2213.537354,514.727539 2234.184326,503.094849 
	C2247.240967,495.738434 2260.784180,489.163330 2274.462158,483.023895 
	C2282.185303,479.557312 2289.400146,481.610687 2293.806641,488.649139 
	C2297.521484,494.582611 2299.311279,501.715057 2302.029297,508.285309 
	C2302.428223,509.248901 2303.248291,510.038055 2303.873535,510.907928 
	C2303.907227,523.321411 2303.940918,535.734863 2303.516113,548.617920 
	C2302.715576,549.568970 2302.129639,550.020935 2302.067383,550.536438 
	C2300.332764,564.866272 2299.473633,579.359558 2296.773193,593.501892 
	C2292.523926,615.754395 2287.203369,637.809265 2282.044189,659.879578 
	C2273.320557,697.197388 2259.433105,732.785706 2244.890869,768.101929 
	C2234.597412,793.100037 2226.608398,818.689209 2221.901367,845.326294 
	C2220.951660,850.700500 2219.648682,856.231506 2217.276367,861.088440 
	C2212.684570,870.488953 2206.732910,879.229675 2202.212646,888.659851 
	C2193.068115,907.737915 2188.622559,928.106262 2186.936279,949.150391 
	C2186.507324,954.503113 2185.598877,959.865234 2184.360107,965.092590 
	C2182.895752,971.271240 2180.848145,977.312561 2179.028564,983.406006 
	C2171.004639,1010.278259 2163.074463,1037.179321 2154.820801,1063.980835 
	C2153.717773,1067.562744 2151.667725,1072.612183 2148.853271,1073.618774 
	C2132.062744,1079.623901 2119.199219,1090.768188 2106.520020,1102.679688 
	C2099.902344,1108.896973 2092.021973,1113.894653 2084.266846,1118.729370 
	C2079.872314,1121.469238 2074.533936,1121.218994 2069.937744,1118.326172 
	C2065.655029,1115.630615 2065.553711,1111.126099 2066.101807,1106.768433 
	C2066.379150,1104.560425 2067.543945,1102.464600 2068.301514,1100.315918 
	C2072.200684,1089.256958 2076.867188,1078.397217 2079.803467,1067.088257 
	C2083.570801,1052.579468 2086.205078,1037.755249 2088.840332,1022.980103 
	C2090.937988,1011.219299 2092.376709,999.337830 2093.974609,987.491943 
	C2095.443115,976.606079 2096.102783,965.571594 2098.227539,954.821777 
	C2103.511230,928.093933 2109.237305,901.448975 2115.142334,874.849915 
	C2120.868164,849.059753 2127.015381,823.362976 2133.019531,797.635010 
	C2138.985840,772.069397 2144.777344,746.459351 2151.115479,720.985779 
	C2153.549805,711.203125 2157.575195,701.824524 2160.267822,692.093628 
	C2161.225586,688.632507 2161.351562,684.312866 2160.128906,681.028259 
	C2158.416260,676.427185 2152.075928,675.833191 2146.991211,679.666443 
	C2139.521484,685.297607 2132.032471,691.006348 2125.239502,697.411865 
	C2105.907959,715.641602 2087.430664,734.805542 2067.654785,752.527527 
	C2049.688477,768.627625 2030.292114,783.120483 2011.846558,798.701172 
	C2000.418945,808.353882 1987.534912,815.407227 1974.021118,821.340088 
	C1965.498291,825.081787 1958.581543,830.539185 1951.427856,836.380493 
	C1942.820435,843.408875 1932.674683,848.926331 1922.502686,853.587219 
	C1901.554199,863.186035 1879.550171,867.352783 1856.319580,864.102966 
	C1831.646484,860.651428 1811.352783,848.831848 1793.150391,832.638733 
	C1775.513794,816.949280 1762.677246,797.320618 1748.796997,778.539246 
	C1743.727783,771.679749 1738.412231,764.983093 1732.882690,758.489990 
	C1729.592651,754.626709 1728.547485,754.927246 1726.686646,759.843811 
	C1725.191406,763.794373 1723.976685,767.886230 1723.038208,772.006714 
	C1717.677490,795.542358 1712.229248,819.061279 1707.223999,842.673523 
	C1703.499634,860.242981 1700.385986,877.942322 1697.028931,895.589233 
	C1693.734009,912.910522 1690.486572,930.240906 1687.197754,947.563293 
	C1684.151245,963.607666 1681.007202,979.633911 1678.036865,995.692322 
	C1675.333496,1010.307190 1672.711182,1024.938599 1670.234375,1039.593384 
	C1668.652466,1048.952515 1667.317261,1058.355957 1666.022217,1067.760254 
	C1664.593018,1078.139526 1664.085938,1088.710938 1661.800293,1098.889526 
	C1659.361938,1109.747925 1652.699341,1117.757324 1641.015503,1119.947998 
	C1634.109619,1121.242798 1627.065430,1121.793945 1620.150635,1123.048584 
	C1610.434937,1124.811646 1600.781372,1126.917725 1591.101318,1128.877197 
	C1587.063354,1128.418091 1582.910156,1128.363647 1579.053711,1127.266479 
	C1577.811523,1126.913086 1576.476929,1123.702515 1576.694946,1121.991455 
	C1577.372437,1116.671875 1578.863281,1111.460815 1579.826294,1106.168945 
	C1580.040649,1104.991943 1579.642456,1103.530762 1579.092529,1102.413818 
	C1573.240234,1090.526489 1573.953003,1078.560913 1578.245483,1066.413086 
	C1582.069336,1055.591553 1582.296875,1044.220337 1583.037964,1032.920654 
	C1583.867188,1020.278748 1584.989502,1007.656006 1586.305908,994.384155 
	C1588.198975,987.919434 1589.802734,982.103882 1591.334106,976.269348 
	C1593.482422,968.083923 1596.670288,959.937256 1593.635254,951.327271 
	C1590.999878,943.851685 1590.557617,936.156921 1591.058838,928.396423 
	C1591.428589,922.673340 1592.213989,916.967957 1593.021484,911.284180 
	C1594.793823,898.811523 1596.503906,886.324829 1598.600342,873.904846 
	C1600.855591,860.543579 1603.671631,847.277405 1605.967041,833.922363 
	C1607.934326,822.476501 1609.571411,810.972412 1611.245483,799.478210 
	C1613.079224,786.888733 1614.202271,774.313904 1611.400879,761.655945 
	C1610.242310,756.421143 1608.324829,750.655457 1609.430664,745.732788 
	C1616.148071,715.831299 1623.703979,686.119141 1630.830811,656.308167 
	C1633.002808,647.222717 1636.238037,638.259888 1633.122437,628.555115 
	C1631.826172,624.517639 1631.405640,619.906311 1631.810303,615.672913 
	C1632.838501,604.919006 1634.445312,594.214294 1636.049072,583.524170 
	C1636.813354,578.430176 1637.274170,573.038086 1639.363770,568.462036 
	C1641.763428,563.207336 1645.814819,558.706909 1649.619995,553.196228 
	C1647.177612,551.086365 1644.980469,549.298584 1642.908447,547.375793 
	C1638.403076,543.194946 1637.142822,537.899231 1638.093872,532.032593 
	C1640.683228,516.060303 1643.501831,500.124054 1645.950806,484.130859 
	C1647.177002,476.123260 1649.233643,468.657593 1656.015747,463.525146 
	C1666.324707,455.723785 1676.488037,447.690063 1687.178101,440.440704 
	C1706.102539,427.607208 1726.498535,417.800293 1748.616333,411.515442 
	C1754.682739,409.791626 1760.155273,405.978058 1765.900391,403.123444 
z"/>
<path fill="#000000" opacity="1.000000" stroke="none" 
	d="
M1591.560791,1128.934204 
	C1600.781372,1126.917725 1610.434937,1124.811646 1620.150635,1123.048584 
	C1627.065430,1121.793945 1634.109619,1121.242798 1641.015503,1119.947998 
	C1652.699341,1117.757324 1659.361938,1109.747925 1661.800293,1098.889526 
	C1664.085938,1088.710938 1664.593018,1078.139526 1666.022217,1067.760254 
	C1667.317261,1058.355957 1668.652466,1048.952515 1670.234375,1039.593384 
	C1672.711182,1024.938599 1675.333496,1010.307190 1678.036865,995.692322 
	C1681.007202,979.633911 1684.151245,963.607666 1687.197754,947.563293 
	C1690.486572,930.240906 1693.734009,912.910522 1697.028931,895.589233 
	C1700.385986,877.942322 1703.499634,860.242981 1707.223999,842.673523 
	C1712.229248,819.061279 1717.677490,795.542358 1723.038208,772.006714 
	C1723.976685,767.886230 1725.191406,763.794373 1726.686646,759.843811 
	C1728.547485,754.927246 1729.592651,754.626709 1732.882690,758.489990 
	C1738.412231,764.983093 1743.727783,771.679749 1748.796997,778.539246 
	C1762.677246,797.320618 1775.513794,816.949280 1793.150391,832.638733 
	C1811.352783,848.831848 1831.646484,860.651428 1856.319580,864.102966 
	C1879.550171,867.352783 1901.554199,863.186035 1922.502686,853.587219 
	C1932.674683,848.926331 1942.820435,843.408875 1951.427856,836.380493 
	C1958.581543,830.539185 1965.498291,825.081787 1974.021118,821.340088 
	C1987.534912,815.407227 2000.418945,808.353882 2011.846558,798.701172 
	C2030.292114,783.120483 2049.688477,768.627625 2067.654785,752.527527 
	C2087.430664,734.805542 2105.907959,715.641602 2125.239502,697.411865 
	C2132.032471,691.006348 2139.521484,685.297607 2146.991211,679.666443 
	C2152.075928,675.833191 2158.416260,676.427185 2160.128906,681.028259 
	C2161.351562,684.312866 2161.225586,688.632507 2160.267822,692.093628 
	C2157.575195,701.824524 2153.549805,711.203125 2151.115479,720.985779 
	C2144.777344,746.459351 2138.985840,772.069397 2133.019531,797.635010 
	C2127.015381,823.362976 2120.868164,849.059753 2115.142334,874.849915 
	C2109.237305,901.448975 2103.511230,928.093933 2098.227539,954.821777 
	C2096.102783,965.571594 2095.443115,976.606079 2093.974609,987.491943 
	C2092.376709,999.337830 2090.937988,1011.219299 2088.840332,1022.980103 
	C2086.205078,1037.755249 2083.570801,1052.579468 2079.803467,1067.088257 
	C2076.867188,1078.397217 2072.200684,1089.256958 2068.301514,1100.315918 
	C2067.543945,1102.464600 2066.379150,1104.560425 2066.101807,1106.768433 
	C2065.553711,1111.126099 2065.655029,1115.630615 2069.937744,1118.326172 
	C2074.533936,1121.218994 2079.872314,1121.469238 2084.266846,1118.729370 
	C2092.021973,1113.894653 2099.902344,1108.896973 2106.520020,1102.679688 
	C2119.199219,1090.768188 2132.062744,1079.623901 2148.853271,1073.618774 
	C2151.667725,1072.612183 2153.717773,1067.562744 2154.820801,1063.980835 
	C2163.074463,1037.179321 2171.004639,1010.278259 2179.028564,983.406006 
	C2180.848145,977.312561 2182.895752,971.271240 2184.360107,965.092590 
	C2185.598877,959.865234 2186.507324,954.503113 2186.936279,949.150391 
	C2188.622559,928.106262 2193.068115,907.737915 2202.212646,888.659851 
	C2206.732910,879.229675 2212.684570,870.488953 2217.276367,861.088440 
	C2219.648682,856.231506 2220.951660,850.700500 2221.901367,845.326294 
	C2226.608398,818.689209 2234.597412,793.100037 2244.890869,768.101929 
	C2259.433105,732.785706 2273.320557,697.197388 2282.044189,659.879578 
	C2287.203369,637.809265 2292.523926,615.754395 2296.773193,593.501892 
	C2299.473633,579.359558 2300.332764,564.866272 2302.067383,550.536438 
	C2302.129639,550.020935 2302.715576,549.568970 2303.465332,549.089905 
	C2303.915771,550.589722 2303.994629,552.087036 2303.994873,553.584412 
	C2304.000244,743.733704 2304.000000,933.883057 2304.000000,1124.032349 
	C2304.000000,1125.506714 2304.000000,1126.981079 2304.000000,1128.991333 
	C2066.509033,1128.991333 1829.264648,1128.991333 1591.560791,1128.934204 
z"/>
<path fill="#000000" opacity="1.000000" stroke="none" 
	d="
M2303.932373,510.447937 
	C2303.248291,510.038055 2302.428223,509.248901 2302.029297,508.285309 
	C2299.311279,501.715057 2297.521484,494.582611 2293.806641,488.649139 
	C2289.400146,481.610687 2282.185303,479.557312 2274.462158,483.023895 
	C2260.784180,489.163330 2247.240967,495.738434 2234.184326,503.094849 
	C2213.537354,514.727539 2195.240967,529.599548 2179.436035,547.252136 
	C2170.804932,556.892212 2163.260010,567.498657 2155.095215,577.563965 
	C2148.783691,585.344421 2142.688721,593.362732 2135.766357,600.573120 
	C2116.763672,620.366394 2097.748047,640.174744 2078.028320,659.243774 
	C2060.700439,675.999939 2042.441650,691.795471 2024.541870,707.957764 
	C2006.857056,723.925842 1987.833984,738.158020 1967.646851,750.780518 
	C1953.354492,759.717285 1938.709106,768.003418 1921.777710,771.133240 
	C1905.447144,774.151855 1890.466553,770.620667 1876.555054,762.011597 
	C1858.640991,750.925537 1846.277832,734.681946 1835.556030,717.036133 
	C1821.132935,693.298340 1811.231201,667.546936 1801.916748,641.500427 
	C1795.414062,623.315979 1790.372314,604.775269 1787.192627,585.778870 
	C1785.730103,577.041443 1785.491699,568.076233 1785.049683,559.196777 
	C1784.505737,548.275757 1784.470581,537.329651 1783.950562,526.407043 
	C1783.488159,516.695068 1782.770752,506.991638 1781.975830,497.300018 
	C1780.683716,481.548553 1784.002930,466.690765 1789.364624,451.945160 
	C1793.620483,440.240967 1793.300659,428.072845 1789.586304,416.073975 
	C1787.756714,410.163788 1783.843506,406.268494 1778.234375,403.431213 
	C1779.604004,403.080414 1781.101440,403.005005 1782.598877,403.004974 
	C1954.731689,402.999695 2126.864502,403.000000 2298.997314,403.000000 
	C2300.474854,403.000000 2301.952393,403.000000 2303.991211,403.000000 
	C2303.991211,438.808807 2303.991211,474.398376 2303.932373,510.447937 
z"/>
<path fill="#000000" opacity="1.000000" stroke="none" 
	d="
M601.947021,1075.843140 
	C589.451843,1075.895386 576.956665,1075.989502 564.461487,1075.992798 
	C512.632263,1076.006470 460.803009,1075.992676 408.495239,1075.470459 
	C408.016724,1072.384277 408.016724,1069.816406 408.016724,1068.039917 
	C398.823944,1066.566650 390.542572,1065.845703 382.583160,1063.844360 
	C362.779083,1058.865112 348.390503,1047.181030 340.467865,1028.001953 
	C334.201813,1012.833252 333.446350,996.657410 333.226929,980.759338 
	C332.587585,934.439392 333.000000,888.104980 333.000000,841.776245 
	C333.000000,840.009705 333.000000,838.243164 333.000000,836.314331 
	C334.833282,836.174255 335.967621,836.021973 337.103363,836.010254 
	C370.384766,835.664917 403.665924,835.156677 436.948059,835.075806 
	C453.220123,835.036255 469.380859,834.546448 485.342896,831.023865 
	C513.216858,824.872620 537.766846,813.184265 556.227356,790.413147 
	C569.796448,773.675598 576.108643,754.259033 577.778259,733.345215 
	C578.684387,721.994507 577.707092,710.437927 576.909363,699.020996 
	C575.941101,685.164490 571.390686,672.174500 565.199585,659.847534 
	C557.434265,644.386169 546.251160,631.730591 533.122559,620.431030 
	C510.740356,601.167053 484.702576,591.943665 455.648254,589.970947 
	C449.441986,589.549561 443.260101,588.769226 437.066986,588.154297 
	C461.558838,588.102905 486.050629,588.025879 510.542511,588.006653 
	C540.703674,587.982971 570.864868,588.007385 601.504700,588.529541 
	C601.983337,591.615417 601.983337,594.182800 601.983337,596.826538 
	C615.273926,597.050903 627.264709,599.089050 638.644653,604.037170 
	C652.758484,610.173950 663.106750,620.066223 669.231079,634.354736 
	C675.568787,649.141418 676.737000,664.934937 676.800903,680.510010 
	C677.196777,776.974060 677.119202,873.440857 676.867798,969.905823 
	C676.831238,983.922058 675.601257,998.004028 673.909729,1011.932495 
	C670.487366,1040.113525 650.901611,1060.107910 622.703796,1065.000854 
	C615.939941,1066.174561 609.091003,1066.858276 601.947021,1067.811890 
	C601.947021,1070.533081 601.947021,1073.188110 601.947021,1075.843140 
z"/>
<path fill="#000000" opacity="1.000000" stroke="none" 
	d="
M1551.843262,705.053223 
	C1551.895508,706.382629 1551.993530,707.712097 1551.993530,709.041504 
	C1552.000610,829.868408 1552.000000,950.695312 1552.000000,1071.522217 
	C1552.000000,1072.830811 1552.000000,1074.139526 1552.000000,1075.988892 
	C1500.166016,1075.988892 1448.569946,1075.988892 1396.495361,1075.470459 
	C1396.016846,1072.384521 1396.016846,1069.816895 1396.016846,1068.039551 
	C1386.825562,1066.566650 1378.565552,1065.784424 1370.582031,1063.857300 
	C1350.644287,1059.044434 1336.381836,1047.316162 1328.468872,1028.066528 
	C1322.288452,1013.031616 1321.389038,997.070618 1321.213379,981.329529 
	C1320.642822,930.178833 1321.000000,879.017761 1321.000000,827.860718 
	C1321.000000,826.085999 1321.000000,824.311279 1321.000000,821.546448 
	C1332.077515,822.049744 1342.471924,822.522766 1352.866333,822.994019 
	C1366.656006,823.619141 1380.038940,826.312927 1393.046143,830.905945 
	C1409.477905,836.708252 1422.772583,846.540039 1432.668457,861.040039 
	C1444.753418,878.748047 1447.707764,899.248474 1450.889526,919.640747 
	C1452.134155,927.617676 1452.121460,928.067078 1461.225342,926.197327 
	C1461.927734,854.415222 1462.631836,782.467773 1463.338135,710.283813 
	C1459.748535,710.283813 1457.171631,710.283813 1454.487183,710.283813 
	C1453.301147,717.843933 1452.174316,725.148438 1451.006226,732.446289 
	C1448.503540,748.081909 1442.980957,762.486511 1432.723999,774.697021 
	C1414.251099,796.688171 1389.089966,804.800842 1361.772705,807.924255 
	C1351.925659,809.050171 1341.983154,809.372620 1332.077026,809.934753 
	C1328.505859,810.137390 1324.913696,809.967285 1321.370605,809.967285 
	C1321.370605,739.582825 1321.370605,670.020874 1321.370605,600.000000 
	C1323.537598,600.000000 1325.337646,600.000000 1327.137573,600.000000 
	C1349.633423,600.000000 1372.143311,599.513184 1394.620117,600.167786 
	C1410.110596,600.618896 1425.717285,601.665649 1440.987305,604.177063 
	C1474.649292,609.713257 1501.069458,627.247314 1520.213623,655.520081 
	C1528.540161,667.817139 1534.256958,681.389771 1538.999634,695.409241 
	C1542.449951,705.608887 1542.516479,705.586365 1551.843262,705.053223 
z"/>
<path fill="#393E46" opacity="1.000000" stroke="none" 
	d="
M602.414551,1075.912598 
	C601.947021,1073.188110 601.947021,1070.533081 601.947021,1067.811890 
	C609.091003,1066.858276 615.939941,1066.174561 622.703796,1065.000854 
	C650.901611,1060.107910 670.487366,1040.113525 673.909729,1011.932495 
	C675.601257,998.004028 676.831238,983.922058 676.867798,969.905823 
	C677.119202,873.440857 677.196777,776.974060 676.800903,680.510010 
	C676.737000,664.934937 675.568787,649.141418 669.231079,634.354736 
	C663.106750,620.066223 652.758484,610.173950 638.644653,604.037170 
	C627.264709,599.089050 615.273926,597.050903 601.983337,596.826538 
	C601.983337,594.182800 601.983337,591.615417 601.964966,588.602356 
	C603.108521,588.104492 604.270447,588.006531 605.432373,588.006531 
	C695.000793,588.005127 784.569275,588.011475 874.894531,588.376953 
	C886.489807,589.817017 897.383545,590.510742 908.155823,592.052490 
	C936.521545,596.112610 963.478333,604.633911 988.753662,618.326965 
	C1013.521545,631.745239 1034.800171,649.339539 1053.222412,670.618713 
	C1071.847168,692.131775 1086.230713,716.199097 1096.629517,742.541321 
	C1109.619507,775.447388 1116.283447,809.636230 1116.116455,845.171448 
	C1116.033691,862.775574 1115.929932,880.360657 1112.811768,897.689819 
	C1107.989502,924.491028 1099.771973,950.189331 1086.936523,974.384766 
	C1072.569580,1001.467346 1052.674561,1023.580688 1027.439453,1040.643555 
	C997.048035,1061.192749 962.356628,1069.114380 926.486816,1073.018188 
	C918.999329,1073.833130 911.538879,1074.896606 904.065979,1075.845459 
	C902.903870,1075.896973 901.741760,1075.993530 900.579651,1075.993530 
	C801.347107,1075.994629 702.114563,1075.988037 602.414551,1075.912598 
M993.870117,984.316895 
	C995.022766,982.309082 996.200134,980.314941 997.324524,978.291382 
	C1016.368408,944.017822 1026.362915,906.971863 1028.680786,868.128601 
	C1029.831543,848.841614 1028.097534,829.332520 1026.912354,809.970154 
	C1025.737549,790.780151 1020.861694,772.222717 1015.069702,753.949524 
	C1004.319092,720.032227 987.316223,689.554199 963.481323,663.131287 
	C948.746216,646.796265 931.633850,633.225342 912.244080,622.619568 
	C884.321716,607.346680 853.980957,601.419495 822.662781,600.154236 
	C802.370361,599.334473 782.017883,599.993958 761.692322,600.010498 
	C759.927063,600.011902 758.161926,600.162598 756.000000,600.262146 
	C756.000000,602.908508 756.000000,605.045959 756.000000,607.183350 
	C756.000000,720.140137 756.031494,833.096924 755.968933,946.053711 
	C755.958557,964.798035 756.095093,983.504822 758.978149,1002.091980 
	C761.402161,1017.719849 767.399536,1031.594727 778.532349,1043.014771 
	C787.939148,1052.664062 799.656189,1058.319214 812.405151,1061.944824 
	C831.704895,1067.433228 851.382812,1066.531494 871.101196,1065.171997 
	C886.887817,1064.083618 902.081116,1060.594727 916.817505,1054.937012 
	C935.067078,1047.930420 951.006958,1037.048828 964.123657,1022.925049 
	C974.968445,1011.247375 983.769714,997.671936 993.870117,984.316895 
z"/>
<path fill="#000000" opacity="1.000000" stroke="none" 
	d="
M904.525574,1075.917236 
	C911.538879,1074.896606 918.999329,1073.833130 926.486816,1073.018188 
	C962.356628,1069.114380 997.048035,1061.192749 1027.439453,1040.643555 
	C1052.674561,1023.580688 1072.569580,1001.467346 1086.936523,974.384766 
	C1099.771973,950.189331 1107.989502,924.491028 1112.811768,897.689819 
	C1115.929932,880.360657 1116.033691,862.775574 1116.116455,845.171448 
	C1116.283447,809.636230 1109.619507,775.447388 1096.629517,742.541321 
	C1086.230713,716.199097 1071.847168,692.131775 1053.222412,670.618713 
	C1034.800171,649.339539 1013.521545,631.745239 988.753662,618.326965 
	C963.478333,604.633911 936.521545,596.112610 908.155823,592.052490 
	C897.383545,590.510742 886.489807,589.817017 875.363647,588.444702 
	C876.238708,588.101807 877.401611,588.006409 878.564453,588.006348 
	C974.385010,588.003174 1070.205566,588.007385 1166.504639,588.529602 
	C1166.983154,591.614197 1166.983154,594.180237 1166.983154,595.660767 
	C1177.491821,597.583557 1187.097534,598.538513 1196.218018,601.172852 
	C1216.804077,607.118896 1231.870361,619.884521 1236.873413,641.222534 
	C1240.010986,654.604309 1241.717163,668.627563 1241.783447,682.373962 
	C1242.207642,770.482239 1242.116821,858.593750 1241.908936,946.703491 
	C1241.863159,966.094482 1241.140503,985.514893 1239.830200,1004.860840 
	C1238.954224,1017.792908 1235.349854,1030.347656 1228.060547,1041.294556 
	C1217.742798,1056.789673 1201.647827,1062.666260 1184.341797,1065.913208 
	C1178.741699,1066.963867 1172.959106,1067.041626 1166.947021,1067.593262 
	C1166.947021,1070.534912 1166.947021,1073.189087 1166.947021,1075.843262 
	C1165.784302,1075.895508 1164.621582,1075.993652 1163.458862,1075.993652 
	C1077.301025,1075.997070 991.143066,1075.992676 904.525574,1075.917236 
z"/>
<path fill="#393E46" opacity="1.000000" stroke="none" 
	d="
M436.598450,588.085815 
	C443.260101,588.769226 449.441986,589.549561 455.648254,589.970947 
	C484.702576,591.943665 510.740356,601.167053 533.122559,620.431030 
	C546.251160,631.730591 557.434265,644.386169 565.199585,659.847534 
	C571.390686,672.174500 575.941101,685.164490 576.909363,699.020996 
	C577.707092,710.437927 578.684387,721.994507 577.778259,733.345215 
	C576.108643,754.259033 569.796448,773.675598 556.227356,790.413147 
	C537.766846,813.184265 513.216858,824.872620 485.342896,831.023865 
	C469.380859,834.546448 453.220123,835.036255 436.948059,835.075806 
	C403.665924,835.156677 370.384766,835.664917 337.103363,836.010254 
	C335.967621,836.021973 334.833282,836.174255 333.000000,836.314331 
	C333.000000,838.243164 333.000000,840.009705 333.000000,841.776245 
	C333.000000,888.104980 332.587585,934.439392 333.226929,980.759338 
	C333.446350,996.657410 334.201813,1012.833252 340.467865,1028.001953 
	C348.390503,1047.181030 362.779083,1058.865112 382.583160,1063.844360 
	C390.542572,1065.845703 398.823944,1066.566650 408.016724,1068.039917 
	C408.016724,1069.816406 408.016724,1072.384277 408.035034,1075.397705 
	C406.226288,1075.895508 404.399261,1075.993164 402.572235,1075.993408 
	C330.017944,1076.001099 257.463654,1076.000000 184.909348,1076.000000 
	C183.110245,1076.000000 181.311127,1076.000000 179.017807,1076.000000 
	C179.017807,1073.076416 179.017807,1070.469116 179.539551,1067.422852 
	C188.571869,1065.968384 197.356964,1065.961670 205.537750,1063.734863 
	C224.532944,1058.564453 238.858078,1047.242920 246.718628,1028.641235 
	C252.778610,1014.300537 253.751984,998.961914 253.807068,983.875610 
	C254.177567,882.385315 254.130798,780.892517 253.818771,679.401794 
	C253.783524,667.936768 251.763748,656.387939 249.741501,645.042480 
	C247.438309,632.120789 240.832794,621.324219 230.662735,612.871094 
	C215.702560,600.436646 198.003845,596.861572 179.157043,597.052002 
	C179.157043,594.240784 179.157043,591.429565 179.157043,588.017395 
	C264.839294,588.017395 350.484589,588.017395 436.598450,588.085815 
M454.985870,624.484802 
	C453.075928,622.904297 451.188629,621.295410 449.252472,619.747681 
	C433.600250,607.235901 415.575867,600.739685 395.722870,600.126465 
	C376.746368,599.540344 357.737610,599.993835 338.743011,600.010132 
	C336.973389,600.011658 335.203857,600.155701 333.304810,600.239258 
	C333.304810,674.962463 333.304810,749.185425 333.304810,823.699036 
	C335.041504,823.811462 336.500366,824.027893 337.950836,823.981506 
	C357.848755,823.344910 377.774872,823.119995 397.630249,821.819641 
	C407.589294,821.167358 417.828125,819.749512 427.226807,816.569092 
	C450.829468,808.582397 467.299347,791.742737 478.825378,770.177795 
	C491.931122,745.657349 493.604248,719.011353 489.655243,692.243774 
	C485.831543,666.325378 475.833893,642.853394 454.985870,624.484802 
z"/>
<path fill="#393E46" opacity="1.000000" stroke="none" 
	d="
M1167.414429,1075.912598 
	C1166.947021,1073.189087 1166.947021,1070.534912 1166.947021,1067.593262 
	C1172.959106,1067.041626 1178.741699,1066.963867 1184.341797,1065.913208 
	C1201.647827,1062.666260 1217.742798,1056.789673 1228.060547,1041.294556 
	C1235.349854,1030.347656 1238.954224,1017.792908 1239.830200,1004.860840 
	C1241.140503,985.514893 1241.863159,966.094482 1241.908936,946.703491 
	C1242.116821,858.593750 1242.207642,770.482239 1241.783447,682.373962 
	C1241.717163,668.627563 1240.010986,654.604309 1236.873413,641.222534 
	C1231.870361,619.884521 1216.804077,607.118896 1196.218018,601.172852 
	C1187.097534,598.538513 1177.491821,597.583557 1166.983154,595.660767 
	C1166.983154,594.180237 1166.983154,591.614197 1166.964844,588.602478 
	C1168.108765,588.104553 1169.270874,588.006653 1170.433105,588.006592 
	C1293.994629,588.005493 1417.556152,588.011719 1541.567139,588.526917 
	C1542.711304,598.255127 1543.316895,607.481934 1544.121948,616.691223 
	C1545.341919,630.649536 1546.617310,644.604187 1548.033569,658.543701 
	C1548.793579,666.025452 1549.896851,673.472351 1550.845459,680.934937 
	C1551.224365,688.662964 1551.603271,696.391052 1551.912842,704.586182 
	C1542.516479,705.586365 1542.449951,705.608887 1538.999634,695.409241 
	C1534.256958,681.389771 1528.540161,667.817139 1520.213623,655.520081 
	C1501.069458,627.247314 1474.649292,609.713257 1440.987305,604.177063 
	C1425.717285,601.665649 1410.110596,600.618896 1394.620117,600.167786 
	C1372.143311,599.513184 1349.633423,600.000000 1327.137573,600.000000 
	C1325.337646,600.000000 1323.537598,600.000000 1321.370605,600.000000 
	C1321.370605,670.020874 1321.370605,739.582825 1321.370605,809.967285 
	C1324.913696,809.967285 1328.505859,810.137390 1332.077026,809.934753 
	C1341.983154,809.372620 1351.925659,809.050171 1361.772705,807.924255 
	C1389.089966,804.800842 1414.251099,796.688171 1432.723999,774.697021 
	C1442.980957,762.486511 1448.503540,748.081909 1451.006226,732.446289 
	C1452.174316,725.148438 1453.301147,717.843933 1454.487183,710.283813 
	C1457.171631,710.283813 1459.748535,710.283813 1463.338135,710.283813 
	C1462.631836,782.467773 1461.927734,854.415222 1461.225342,926.197327 
	C1452.121460,928.067078 1452.134155,927.617676 1450.889526,919.640747 
	C1447.707764,899.248474 1444.753418,878.748047 1432.668457,861.040039 
	C1422.772583,846.540039 1409.477905,836.708252 1393.046143,830.905945 
	C1380.038940,826.312927 1366.656006,823.619141 1352.866333,822.994019 
	C1342.471924,822.522766 1332.077515,822.049744 1321.000000,821.546448 
	C1321.000000,824.311279 1321.000000,826.085999 1321.000000,827.860718 
	C1321.000000,879.017761 1320.642822,930.178833 1321.213379,981.329529 
	C1321.389038,997.070618 1322.288452,1013.031616 1328.468872,1028.066528 
	C1336.381836,1047.316162 1350.644287,1059.044434 1370.582031,1063.857300 
	C1378.565552,1065.784424 1386.825562,1066.566650 1396.016846,1068.039551 
	C1396.016846,1069.816895 1396.016846,1072.384521 1396.035156,1075.397705 
	C1394.891846,1075.895508 1393.730347,1075.993530 1392.568726,1075.993530 
	C1317.673096,1075.994751 1242.777466,1075.988159 1167.414429,1075.912598 
z"/>
<path fill="#000000" opacity="1.000000" stroke="none" 
	d="
M179.084061,597.512329 
	C198.003845,596.861572 215.702560,600.436646 230.662735,612.871094 
	C240.832794,621.324219 247.438309,632.120789 249.741501,645.042480 
	C251.763748,656.387939 253.783524,667.936768 253.818771,679.401794 
	C254.130798,780.892517 254.177567,882.385315 253.807068,983.875610 
	C253.751984,998.961914 252.778610,1014.300537 246.718628,1028.641235 
	C238.858078,1047.242920 224.532944,1058.564453 205.537750,1063.734863 
	C197.356964,1065.961670 188.571869,1065.968384 179.609131,1066.965698 
	C179.104660,1065.784790 179.006531,1064.622070 179.006516,1063.459229 
	C179.003357,908.297058 179.007385,753.134827 179.084061,597.512329 
z"/>
<path fill="#000000" opacity="1.000000" stroke="none" 
	d="
M1765.440674,403.066071 
	C1760.155273,405.978058 1754.682739,409.791626 1748.616333,411.515442 
	C1726.498535,417.800293 1706.102539,427.607208 1687.178101,440.440704 
	C1676.488037,447.690063 1666.324707,455.723785 1656.015747,463.525146 
	C1649.233643,468.657593 1647.177002,476.123260 1645.950806,484.130859 
	C1643.501831,500.124054 1640.683228,516.060303 1638.093872,532.032593 
	C1637.142822,537.899231 1638.403076,543.194946 1642.908447,547.375793 
	C1644.980469,549.298584 1647.177612,551.086365 1649.619995,553.196228 
	C1645.814819,558.706909 1641.763428,563.207336 1639.363770,568.462036 
	C1637.274170,573.038086 1636.813354,578.430176 1636.049072,583.524170 
	C1634.445312,594.214294 1632.838501,604.919006 1631.810303,615.672913 
	C1631.405640,619.906311 1631.826172,624.517639 1633.122437,628.555115 
	C1636.238037,638.259888 1633.002808,647.222717 1630.830811,656.308167 
	C1623.703979,686.119141 1616.148071,715.831299 1609.430664,745.732788 
	C1608.324829,750.655457 1610.242310,756.421143 1611.400879,761.655945 
	C1614.202271,774.313904 1613.079224,786.888733 1611.245483,799.478210 
	C1609.571411,810.972412 1607.934326,822.476501 1605.967041,833.922363 
	C1603.671631,847.277405 1600.855591,860.543579 1598.600342,873.904846 
	C1596.503906,886.324829 1594.793823,898.811523 1593.021484,911.284180 
	C1592.213989,916.967957 1591.428589,922.673340 1591.058838,928.396423 
	C1590.557617,936.156921 1590.999878,943.851685 1593.635254,951.327271 
	C1596.670288,959.937256 1593.482422,968.083923 1591.334106,976.269348 
	C1589.802734,982.103882 1588.198975,987.919434 1586.274170,993.939087 
	C1585.613892,992.612305 1585.038574,991.090088 1585.038208,989.567749 
	C1584.997925,795.518494 1585.000000,601.469299 1585.000000,407.420044 
	C1585.000000,406.117279 1585.000000,404.814514 1585.000000,403.008698 
	C1645.178833,403.008698 1705.079956,403.008698 1765.440674,403.066071 
z"/>
<path fill="#000000" opacity="1.000000" stroke="none" 
	d="
M1551.053101,680.560181 
	C1549.896851,673.472351 1548.793579,666.025452 1548.033569,658.543701 
	C1546.617310,644.604187 1545.341919,630.649536 1544.121948,616.691223 
	C1543.316895,607.481934 1542.711304,598.255127 1542.034424,588.596558 
	C1545.189819,588.156921 1548.327271,588.156921 1551.766968,588.156921 
	C1551.846558,589.138916 1551.989868,590.086365 1551.990234,591.033752 
	C1552.002197,619.345215 1552.010498,647.656738 1551.968506,675.968140 
	C1551.966431,677.374268 1551.507202,678.779724 1551.053101,680.560181 
z"/>
<path fill="#000000" opacity="1.000000" stroke="none" 
	d="
M993.673279,984.627075 
	C983.769714,997.671936 974.968445,1011.247375 964.123657,1022.925049 
	C951.006958,1037.048828 935.067078,1047.930420 916.817505,1054.937012 
	C902.081116,1060.594727 886.887817,1064.083618 871.101196,1065.171997 
	C851.382812,1066.531494 831.704895,1067.433228 812.405151,1061.944824 
	C799.656189,1058.319214 787.939148,1052.664062 778.532349,1043.014771 
	C767.399536,1031.594727 761.402161,1017.719849 758.978149,1002.091980 
	C756.095093,983.504822 755.958557,964.798035 755.968933,946.053711 
	C756.031494,833.096924 756.000000,720.140137 756.000000,607.183350 
	C756.000000,605.045959 756.000000,602.908508 756.000000,600.262146 
	C758.161926,600.162598 759.927063,600.011902 761.692322,600.010498 
	C782.017883,599.993958 802.370361,599.334473 822.662781,600.154236 
	C853.980957,601.419495 884.321716,607.346680 912.244080,622.619568 
	C931.633850,633.225342 948.746216,646.796265 963.481323,663.131287 
	C987.316223,689.554199 1004.319092,720.032227 1015.069702,753.949524 
	C1020.861694,772.222717 1025.737549,790.780151 1026.912354,809.970154 
	C1028.097534,829.332520 1029.831543,848.841614 1028.680786,868.128601 
	C1026.362915,906.971863 1016.368408,944.017822 997.324524,978.291382 
	C996.200134,980.314941 995.022766,982.309082 993.673279,984.627075 
z"/>
<path fill="#000000" opacity="1.000000" stroke="none" 
	d="
M455.237732,624.737610 
	C475.833893,642.853394 485.831543,666.325378 489.655243,692.243774 
	C493.604248,719.011353 491.931122,745.657349 478.825378,770.177795 
	C467.299347,791.742737 450.829468,808.582397 427.226807,816.569092 
	C417.828125,819.749512 407.589294,821.167358 397.630249,821.819641 
	C377.774872,823.119995 357.848755,823.344910 337.950836,823.981506 
	C336.500366,824.027893 335.041504,823.811462 333.304810,823.699036 
	C333.304810,749.185425 333.304810,674.962463 333.304810,600.239258 
	C335.203857,600.155701 336.973389,600.011658 338.743011,600.010132 
	C357.737610,599.993835 376.746368,599.540344 395.722870,600.126465 
	C415.575867,600.739685 433.600250,607.235901 449.252472,619.747681 
	C451.188629,621.295410 453.075928,622.904297 455.237732,624.737610 
z"/>
</svg>